<?xml version="1.0" standalone="no"?><!DOCTYPE svg PUBLIC "-//W3C//DTD SVG 1.1//EN" "http://www.w3.org/Graphics/SVG/1.1/DTD/svg11.dtd"><svg t="1506675350072" class="icon" style="" viewBox="0 0 1024 1024" version="1.1" xmlns="http://www.w3.org/2000/svg" p-id="28864" xmlns:xlink="http://www.w3.org/1999/xlink" width="128" height="128"><defs><style type="text/css"></style></defs><path d="M511.493975 959.27793c-60.3239 0-118.857015-11.821233-173.97331-35.136242-53.224202-22.51376-101.022835-54.740742-142.0656-95.78453-41.042765-41.043788-73.269747-88.842421-95.78453-142.069693-23.315008-55.118342-35.136242-113.65555-35.136241-173.984566 0-60.33004 11.821233-118.866225 35.136241-173.984567 22.51376-53.226249 54.740742-101.024881 95.78453-142.067646 41.041742-41.041742 88.840374-73.2677 142.0656-95.780437 55.115272-23.312962 113.648386-35.134195 173.972287-35.134195 60.33004 0 118.868271 11.821233 173.986613 35.133172 53.229319 22.512736 101.029998 54.738695 142.073786 95.780437 41.044812 41.042765 73.272817 88.840374 95.786577 142.067646 23.315008 55.118342 35.137265 113.654526 35.137264 173.984566 0 60.33004-11.822257 118.866225-35.137264 173.984567-22.514783 53.227272-54.741765 101.026928-95.786577 142.069693-41.043788 41.043788-88.844467 73.27077-142.073786 95.785553-55.117318 23.315008-113.65555 35.136242-173.98559 35.136242z m0-853.008605c-223.884047 0-406.02641 182.146457-406.02641 406.034597 0 223.892233 182.143387 406.04176 406.02641 406.04176 223.898373 0 406.053016-182.149527 406.053016-406.04176-0.001023-223.889163-182.154643-406.034597-406.053016-406.034597z" fill="#231815" p-id="28865"></path><path d="M391.895063 363.757724l268.131807 268.13283-28.943193 28.943193-268.131806-268.13283z" fill="#231815" p-id="28866"></path><path d="M631.772362 363.048573l28.943193 28.943193L391.172609 661.535735l-28.943193-28.943193z" fill="#231815" p-id="28867"></path></svg>