<?xml version="1.0" standalone="no"?><!DOCTYPE svg PUBLIC "-//W3C//DTD SVG 1.1//EN" "http://www.w3.org/Graphics/SVG/1.1/DTD/svg11.dtd"><svg t="1506674196648" class="icon" style="" viewBox="0 0 1024 1024" version="1.1" xmlns="http://www.w3.org/2000/svg" p-id="16296" xmlns:xlink="http://www.w3.org/1999/xlink" width="128" height="128"><defs><style type="text/css"></style></defs><path d="M512 0C229.376 0 0 229.376 0 512s229.376 512 512 512 512-229.376 512-512S794.624 0 512 0z m2.56 977.408c-257.536 0-466.432-208.896-466.432-466.944 0-258.048 208.896-466.944 466.432-466.944s466.432 208.896 466.432 466.944c0 258.048-208.896 466.944-466.432 466.944z" fill="" p-id="16297"></path><path d="M748.544 616.96c2.56 2.56 3.584 4.608 3.584 5.632 0 2.048-2.048 2.56-5.632 2.56h-217.6c0 39.424 0.512 78.336 2.048 101.888v3.072c0 8.704-2.048 10.752-13.312 15.36-4.608 2.048-8.192 3.584-10.24 3.584-3.584 0-4.608-3.584-4.608-12.288v-5.12c1.024-30.208 1.536-76.288 1.536-106.496H323.072c-10.752 0-25.6 2.048-34.304 5.632l-14.336-19.456c12.8 1.024 25.6 2.048 37.376 2.048h192.512V547.84H383.488v15.872c0 6.144-1.536 7.168-12.288 11.776-4.096 1.536-7.168 2.56-9.216 2.56-3.072 0-4.096-2.56-4.096-9.728v-4.608c1.024-27.648 1.536-50.688 1.536-76.8V390.656c0-11.264-0.512-33.28-1.536-47.616l35.328 26.624h147.968c28.672-33.792 55.808-75.776 68.608-102.4l30.208 23.04c1.536 1.024 2.56 2.56 2.56 3.584 0 1.536-2.048 2.56-6.144 3.584-11.776 2.56-26.112 12.8-81.408 72.192h88.576l17.408-23.04 34.816 24.576c2.56 2.048 4.096 3.584 4.096 5.12 0 1.536-1.536 3.072-4.096 4.608l-16.384 10.24v88.576c0 32.768 0.512 46.08 2.56 68.608 0 1.536 0.512 3.072 0.512 4.608 0 6.144-3.072 8.192-13.824 12.8-4.608 2.048-7.68 3.072-9.728 3.072-3.584 0-3.584-2.048-3.584-20.992h-126.464v65.536h161.28l26.112-31.744 32.256 35.328zM504.32 452.608v-71.68H383.488v71.68h120.832z m0 83.968V463.872H383.488v72.704h120.832zM404.48 267.776c18.944 10.752 71.68 44.032 71.68 69.12 0 12.8-9.216 26.112-17.92 26.112-6.144 0-9.216-5.12-12.8-23.04-2.56-14.336-15.36-39.424-45.056-66.56l4.096-5.632z m250.88 184.832v-71.68h-126.464v71.68H655.36z m0 83.968V463.872h-126.464v72.704H655.36z" fill="" p-id="16298"></path></svg>