<?xml version="1.0" standalone="no"?><!DOCTYPE svg PUBLIC "-//W3C//DTD SVG 1.1//EN" "http://www.w3.org/Graphics/SVG/1.1/DTD/svg11.dtd"><svg t="1506648177630" class="icon" style="" viewBox="0 0 1024 1024" version="1.1" xmlns="http://www.w3.org/2000/svg" p-id="1008" xmlns:xlink="http://www.w3.org/1999/xlink" width="200" height="200"><defs><style type="text/css"></style></defs><path d="M1024 512c0-282.624-229.376-512-512-512s-512 229.376-512 512 229.376 512 512 512c113.664 0 221.696-37.376 310.272-104.96 9.728-7.68 11.776-21.504 4.096-31.232-7.68-9.728-21.504-11.776-31.232-4.096-80.896 61.44-179.2 95.744-283.136 95.744-258.048 0-467.456-209.408-467.456-467.456s209.408-467.456 467.456-467.456 467.456 209.408 467.456 467.456c0 87.04-23.552 170.496-68.096 243.2-6.656 10.24-3.072 24.064 7.168 30.72 10.24 6.656 24.064 3.072 30.72-7.168C997.888 698.88 1024 607.232 1024 512z m-654.848-36.352l-30.208 2.56 225.28 175.616 17.408 13.824 13.824-17.408 245.248-314.368c7.68-9.728 5.632-23.552-4.096-31.232-9.728-7.68-23.552-5.632-31.232 4.096l-245.248 314.368 31.232-4.096-225.28-175.616-16.384-12.8-13.824 15.36-159.232 175.616c-8.192 9.216-7.68 23.04 1.536 31.232 9.216 8.192 23.04 7.68 31.232-1.536l159.744-175.616z" fill="" p-id="1009"></path></svg>