<?xml version="1.0" standalone="no"?><!DOCTYPE svg PUBLIC "-//W3C//DTD SVG 1.1//EN" "http://www.w3.org/Graphics/SVG/1.1/DTD/svg11.dtd"><svg t="1506615041540" class="icon" style="" viewBox="0 0 1024 1024" version="1.1" xmlns="http://www.w3.org/2000/svg" p-id="11766" xmlns:xlink="http://www.w3.org/1999/xlink" width="200" height="200"><defs><style type="text/css"></style></defs><path d="M512 71.68c-243.2 0-440.32 197.12-440.32 440.32s197.12 440.32 440.32 440.32 440.32-197.12 440.32-440.32-197.12-440.32-440.32-440.32z m0 829.44c-214.528 0-389.12-174.592-389.12-389.12s174.592-389.12 389.12-389.12 389.12 174.592 389.12 389.12-174.592 389.12-389.12 389.12z" p-id="11767"></path><path d="M736.256 320h-128v-48.128c0-8.704-7.168-15.872-15.872-15.872H432.128c-8.704 0-15.872 7.168-15.872 15.872v48.128h-128c-8.704 0-15.872 7.168-15.872 15.872V384c0 8.704 7.168 15.872 15.872 15.872h448c8.704 0 15.872-7.168 15.872-15.872v-48.128c0-8.704-7.168-15.872-15.872-15.872z m-287.744-31.744h128v31.744h-128v-31.744zM704 432.128h-384v320c0 8.704 7.168 15.872 15.872 15.872h351.744c8.704 0 15.872-7.168 15.872-15.872l0.512-320z m-255.488 240.128h-32.256v-143.872h31.744v143.872z m79.872 0H496.64v-143.872h31.744v143.872z m79.872 0h-31.744v-143.872h31.744v143.872z" p-id="11768"></path></svg>