<?xml version="1.0" standalone="no"?><!DOCTYPE svg PUBLIC "-//W3C//DTD SVG 1.1//EN" "http://www.w3.org/Graphics/SVG/1.1/DTD/svg11.dtd"><svg t="1506692587904" class="icon" style="" viewBox="0 0 1024 1024" version="1.1" xmlns="http://www.w3.org/2000/svg" p-id="2391" xmlns:xlink="http://www.w3.org/1999/xlink" width="128" height="128"><defs><style type="text/css"></style></defs><path d="M546.7136 471.2192c16-2.6624 22.656 2.688 19.9936 16l140.0064 0c37.3248 0 51.9936 13.3376 44.0064 39.9872-34.688 146.6368-185.344 213.3248-451.9936 199.9872-16-7.9872-16-16 0-24.0128 130.6624 5.3248 231.9872-7.9872 304-39.9872-39.9872-32-83.9936-62.6432-131.9936-92.0064-29.3376 16-66.688 28.0064-112 35.9936-16-5.2992-17.3568-13.312-3.9936-24.0128C434.7136 567.1936 498.7136 529.8944 546.7136 471.2192zM482.7136 279.2192l176 0c39.9872 0 53.3248 13.3376 39.9872 39.9872-88.0128 133.3504-216.0128 199.9872-384 199.9872-13.3376-7.9872-13.3376-16 0-24.0128 71.9872 0 140.0064-14.6432 204.0064-44.0064-39.9872-29.312-82.688-57.3184-128-83.9936-13.3376 10.6752-32 21.3504-56.0128 32-16 2.688-19.9936-3.9936-12.0064-19.9936 58.6496-29.312 108.0064-70.656 147.9936-124.0064 16-2.6624 22.656 2.688 19.9936 16L482.7136 279.2192zM650.7264 303.2064l-184.0128 0c-13.3376 16-30.6944 32-51.9936 48 45.312 29.3376 88.0128 57.344 128 83.9936 42.6496-21.3248 83.9936-58.6496 124.0064-112C674.7136 309.888 669.3632 303.2064 650.7264 303.2064zM698.7264 511.2064l-152.0128 0c-16 16-34.688 30.6944-56.0128 43.9808 48 26.7008 93.312 58.7008 135.9872 96 56.0128-34.6624 88.0128-73.2928 96-115.9936C728.0384 519.2192 720.0256 511.2064 698.7264 511.2064z" p-id="2392"></path><path d="M512 1024C229.6832 1024 0 794.3168 0 512 0 229.6832 229.6832 0 512 0s512 229.6832 512 512C1024 794.3168 794.3168 1024 512 1024zM512 51.2C257.92 51.2 51.2 257.92 51.2 512c0 254.08 206.72 460.8 460.8 460.8s460.8-206.72 460.8-460.8C972.8 257.92 766.08 51.2 512 51.2z" p-id="2393"></path></svg>