<?xml version="1.0" standalone="no"?><!DOCTYPE svg PUBLIC "-//W3C//DTD SVG 1.1//EN" "http://www.w3.org/Graphics/SVG/1.1/DTD/svg11.dtd"><svg t="1506615008074" class="icon" style="" viewBox="0 0 1024 1024" version="1.1" xmlns="http://www.w3.org/2000/svg" p-id="10434" xmlns:xlink="http://www.w3.org/1999/xlink" width="200" height="200"><defs><style type="text/css"></style></defs><path d="M511.878738 100.045577c55.336306 0 108.995413 10.827603 159.492504 32.18298 48.78817 20.638039 92.618421 50.191122 130.259716 87.831394 37.646412 37.646412 67.198471 81.471546 87.832418 130.266879 21.361517 50.491974 32.190143 104.151082 32.190143 159.486364 0 55.336306-10.828626 108.995413-32.190143 159.492504-20.633946 48.78817-50.186006 92.618421-87.826278 130.260739-37.647435 37.645388-81.471546 67.198471-130.265856 87.831394-50.498114 21.361517-104.156198 32.190143-159.492504 32.190143-55.336306 0-108.99439-10.828626-159.486364-32.190143-48.795333-20.632923-92.619444-50.186006-130.265856-87.826278-37.640272-37.647435-67.193355-81.471546-87.832418-130.265856-21.3564-50.498114-32.18298-104.156198-32.18298-159.492504 0-55.335283 10.827603-108.995413 32.18298-159.486364 20.638039-48.795333 50.191122-92.620467 87.832418-130.266879 37.647435-37.640272 81.471546-67.193355 130.265856-87.831394C402.883325 110.87318 456.542432 100.045577 511.878738 100.045577M511.878738 62.791092c-246.88183 0-447.023126 200.141296-447.023126 447.02415 0 246.888993 200.141296 447.02415 447.023126 447.02415 246.888993 0 447.023126-200.135156 447.023126-447.02415C958.900841 262.932388 758.766708 62.791092 511.878738 62.791092L511.878738 62.791092 511.878738 62.791092zM599.017354 323.701426c30.581506 30.615275 60.947094 61.009516 91.602278 91.691305-82.649372 82.007759-165.627225 164.331719-248.302179 246.372224-30.577413-30.576389-60.935838-60.940954-91.648326-91.65242C433.242773 488.180502 516.228813 405.844262 599.017354 323.701426L599.017354 323.701426zM709.194686 395.856793c-31.05939-31.081902-61.441351-61.480236-92.010577-92.072999 0.505513-0.545422 1.285273-1.443885 2.12643-2.285043 13.914918-13.920034 27.818579-27.847232 41.762149-41.739637 17.325597-17.268292 40.579207-17.250896 57.927317 0.028653 11.186783 11.147898 22.350031 22.321378 33.502022 33.502022 17.461697 17.512862 17.496489 40.762379 0.085958 58.196447-13.733792 13.755282-27.500331 27.475771-41.215704 41.249473C710.44005 393.674081 709.825043 394.935818 709.194686 395.856793L709.194686 395.856793zM276.813025 736.404909c18.349927-49.02046 36.697807-98.041944 54.870702-146.58452 30.000268 29.978778 60.07626 60.025095 90.231047 90.157369-47.877427 18.946514-96.153944 38.050618-144.43046 57.155744C277.25714 736.88791 277.035082 736.64948 276.813025 736.404909L276.813025 736.404909zM276.813025 736.404909" p-id="10435"></path></svg>