<?xml version="1.0" standalone="no"?><!DOCTYPE svg PUBLIC "-//W3C//DTD SVG 1.1//EN" "http://www.w3.org/Graphics/SVG/1.1/DTD/svg11.dtd"><svg t="1506648277072" class="icon" style="" viewBox="0 0 1025 1024" version="1.1" xmlns="http://www.w3.org/2000/svg" p-id="3981" xmlns:xlink="http://www.w3.org/1999/xlink" width="200.1953125" height="200"><defs><style type="text/css"></style></defs><path d="M511.376261 0c-281.972071 0-511.376261 229.40419-511.376261 511.376261 0 281.971072 229.40419 511.376261 511.376261 511.376261 281.971072 0 511.376261-229.405188 511.376261-511.376261C1022.752522 229.40419 793.347333 0 511.376261 0zM511.376261 986.866293c-262.189201 0-475.490032-213.30183-475.490032-475.490032s213.30183-475.490032 475.490032-475.490032 475.490032 213.30183 475.490032 475.490032S773.565462 986.866293 511.376261 986.866293zM637.836014 610.93982c-27.809081 0-52.410074 12.89627-68.985856 32.731077L418.304783 558.932255c3.372886-9.44448 5.546235-19.476244 5.546235-30.077314 0-10.995588-2.260243-21.411883-5.878829-31.171979l114.1238-75.171312c15.726818 13.264821 35.755388 21.57868 57.885396 21.57868 49.782279 0 90.276887-40.494608 90.276887-90.275888 0-49.772291-40.494608-90.266899-90.276887-90.266899-49.78128 0-90.275888 40.494608-90.275888 90.266899 0 14.613176 3.82034 28.237558 10.013786 40.45965l-110.611085 72.867122c-16.479899-17.48767-39.670613-28.561163-65.534066-28.561163-49.78128 0-90.275888 40.493609-90.275888 90.275888 0 49.772291 40.494608 90.266899 90.275888 90.266899 26.265963 0 49.729344-11.460022 66.2442-29.420116l151.998603 85.544659c-2.505943 8.287891-4.258805 16.874418-4.258805 25.968326 0 49.763302 40.494608 90.25791 90.276887 90.25791 49.78128 0 90.275888-40.494608 90.275888-90.25791C728.111903 651.433429 687.617295 610.93982 637.836014 610.93982zM589.981384 299.432774c29.99841 0 54.390658 24.391249 54.390658 54.38067s-24.392248 54.389659-54.390658 54.389659c-29.997411 0-54.389659-24.400238-54.389659-54.389659S559.983973 299.432774 589.981384 299.432774zM333.57513 583.235612c-29.989421 0-54.389659-24.391249-54.389659-54.38067s24.400238-54.389659 54.389659-54.389659 54.389659 24.400238 54.389659 54.389659S363.565549 583.235612 333.57513 583.235612zM637.836014 755.58739c-29.99841 0-54.389659-24.391249-54.389659-54.371681 0-29.99841 24.391249-54.389659 54.389659-54.389659s54.389659 24.391249 54.389659 54.389659C692.225674 731.196141 667.834425 755.58739 637.836014 755.58739z" p-id="3982"></path></svg>