<?xml version="1.0" standalone="no"?><!DOCTYPE svg PUBLIC "-//W3C//DTD SVG 1.1//EN" "http://www.w3.org/Graphics/SVG/1.1/DTD/svg11.dtd"><svg t="1506657315339" class="icon" style="" viewBox="0 0 1024 1024" version="1.1" xmlns="http://www.w3.org/2000/svg" p-id="4216" xmlns:xlink="http://www.w3.org/1999/xlink" width="128" height="128"><defs><style type="text/css"></style></defs><path d="M512.181637 68.049862c-246.413156 0-446.159456 199.754486-446.159456 446.163549 0 246.407016 199.7463 446.158433 446.159456 446.158433 246.4019 0 446.165596-199.750393 446.165596-446.158433C958.347233 267.804349 758.583536 68.049862 512.181637 68.049862zM512.181637 932.564521c-231.054353 0-418.35725-187.29778-418.35725-418.35111 0-231.061516 187.302897-418.361343 418.35725-418.361343 231.055376 0 418.36339 187.298803 418.36339 418.361343C930.545026 745.266741 743.237013 932.564521 512.181637 932.564521zM548.524356 572.042491l0-247.998257L460.624401 324.044234l0 248.998027-111.425765-92.967368-42.396599 63.710021 197.778482 175.799912 197.763133-175.799912-43.939745-65.919339L548.524356 572.042491z" p-id="4217"></path></svg>