<?xml version="1.0" standalone="no"?><!DOCTYPE svg PUBLIC "-//W3C//DTD SVG 1.1//EN" "http://www.w3.org/Graphics/SVG/1.1/DTD/svg11.dtd"><svg t="1506657327621" class="icon" style="" viewBox="0 0 1024 1024" version="1.1" xmlns="http://www.w3.org/2000/svg" p-id="4893" xmlns:xlink="http://www.w3.org/1999/xlink" width="128" height="128"><defs><style type="text/css"></style></defs><path d="M512.181637 956.276572c-246.415202 0-446.160479-199.753463-446.160479-446.164572 0-246.407016 199.745277-446.155363 446.160479-446.155363 246.404969 0 446.165596 199.748347 446.165596 446.155363C958.347233 756.523109 758.586606 956.276572 512.181637 956.276572zM512.181637 91.752704c-231.051283 0-418.358273 187.30699-418.358273 418.359296C93.823364 741.175563 281.130354 928.479483 512.181637 928.479483c231.057423 0 418.36032-187.30392 418.36032-418.367483C930.541957 279.059694 743.23906 91.752704 512.181637 91.752704zM548.523333 452.284967l0 247.99928L460.624401 700.284247 460.624401 451.284173l-111.425765 92.968391-42.396599-63.711044 197.779505-175.800935 197.765179 175.800935-43.941791 65.920362L548.523333 452.284967z" p-id="4894"></path></svg>