<?xml version="1.0" standalone="no"?><!DOCTYPE svg PUBLIC "-//W3C//DTD SVG 1.1//EN" "http://www.w3.org/Graphics/SVG/1.1/DTD/svg11.dtd"><svg t="1506614995184" class="icon" style="" viewBox="0 0 1024 1024" version="1.1" xmlns="http://www.w3.org/2000/svg" p-id="9770" xmlns:xlink="http://www.w3.org/1999/xlink" width="200" height="200"><defs><style type="text/css"></style></defs><path d="M694.992593 503.466667c-3.792593-20.859259-40.77037-53.096296-40.770371-53.096297-29.392593-34.133333-131.792593-91.97037-131.792592-91.97037-57.837037-37.925926-99.555556-36.02963-99.555556-36.02963-34.133333 0.948148-43.614815 53.096296-43.614815 53.096297-17.066667 48.355556-14.222222 138.42963-14.222222 138.429629v18.962963C365.037037 638.103704 388.740741 673.185185 388.740741 673.185185c12.325926 54.044444 81.540741 18.014815 81.54074 18.014815 33.185185-8.533333 125.155556-71.111111 125.155556-71.111111 52.148148-42.666667 91.022222-83.437037 91.022222-83.437037 17.066667-17.066667 8.533333-33.185185 8.533334-33.185185z" p-id="9771"></path><path d="M512 0C229.451852 0 0 229.451852 0 512s229.451852 512 512 512 512-229.451852 512-512S794.548148 0 512 0z m0 990.814815C247.466667 990.814815 33.185185 776.533333 33.185185 512S247.466667 33.185185 512 33.185185s478.814815 214.281481 478.814815 478.814815-214.281481 478.814815-478.814815 478.814815z" p-id="9772"></path></svg>